<svg width="32" height="32" viewBox="0 0 32 32" fill="none" xmlns="http://www.w3.org/2000/svg">
<path fill-rule="evenodd" clip-rule="evenodd" d="M6.97292 21.5381H10.8714L10.8722 25.693H6.97292V21.5381ZM3.58902 11.8966H6.15399V14.462H3.58876L3.58902 11.8966ZM7.94882 2.61565L5.30707 2.66702L5.28211 5.32015L0.0889703 5.39787L0.0448011 7.98692L2.82032 8.05946L2.79694 10.7734L0.101735 10.7697L0.102177 13.5891H2.81975L2.87188 15.1804H0.0247701L0 18.0507H3.07624C3.07567 16.812 2.90809 15.7867 3.28129 15.2303C3.71091 15.3857 3.69239 14.9426 3.69239 16.0002V18.7184H1.43515L1.43597 23.6409H4.05131L4.15115 25.7461L6.66646 25.7439V31.7185C7.85858 32.0471 11.8345 31.8464 13.3324 31.8464L13.3716 29.1787L15.949 29.1566L15.9484 26.8209L18.6172 26.8702L18.6161 31.8464L23.9501 31.7978L23.972 29.1789L26.667 29.1795L26.6663 26.8209H29.1294V29.7434H31.9879L31.9999 26.6679L29.1785 26.6285L29.154 21.4357L26.667 21.4364L26.6483 18.7178L24.8722 18.7182L24.8096 25.591L20.4616 25.5908L20.4057 16.2567C19.4682 16.539 18.4953 17.9204 17.6592 18.6812L14.7691 21.167C12.6663 18.9655 10.5933 16.1681 8.6954 14.0711C8.19462 13.5181 8.08372 13.3132 7.66845 12.8395C6.82961 11.8826 6.95536 12.0962 6.97305 10.051L7.03681 6.37149C7.64191 6.76749 13.8131 14.5865 14.7434 15.7562C16.4177 14.692 18.1893 12.3746 19.7871 10.9699L23.6291 7.42807C24.2258 6.71075 23.9373 6.53338 24.0509 5.38346L31.9493 5.37449L31.9492 2.71751L28.8723 2.66677L28.8722 0.0506145L20.9739 0.0386086L20.9746 2.66677H18.6668L18.6659 0H13.1537L13.1288 2.66677L10.7162 2.62753L10.7169 0H7.94894V2.6154L7.94882 2.61565Z" fill="#121212"/>
<path fill-rule="evenodd" clip-rule="evenodd" d="M24.8217 15.9993H29.6415L29.7433 11.0775H24.8208L24.8217 15.9993Z" fill="#121212"/>
<path fill-rule="evenodd" clip-rule="evenodd" d="M0 29.3333H2.4616V32H5.33203L5.43534 29.1297H2.66519L2.66601 26.668H0V29.3333Z" fill="#121212"/>
<path fill-rule="evenodd" clip-rule="evenodd" d="M29.5398 21.538H31.9999V16.4111H29.5391L29.5398 21.538Z" fill="#121212"/>
<path fill-rule="evenodd" clip-rule="evenodd" d="M0.102051 2.58901L2.61496 2.73516L2.67638 4.51128L4.51221 4.51147L4.51145 2.66692H2.81975L2.8061 0.0891802L0.102177 0.0549316L0.102051 2.58901Z" fill="#121212"/>
<path fill-rule="evenodd" clip-rule="evenodd" d="M3.33265 28.9229H6.15247L6.15323 26.0526H3.28223L3.33265 28.9229Z" fill="#121212"/>
<path fill-rule="evenodd" clip-rule="evenodd" d="M24.8219 9.84506H27.2827L27.2818 7.17993H24.7954L24.8219 9.84506Z" fill="#121212"/>
<path fill-rule="evenodd" clip-rule="evenodd" d="M29.5398 10.6657H31.9879L31.9999 8.00049H29.5391L29.5398 10.6657Z" fill="#121212"/>
</svg>
